# xmcd
#
# Track frame offsets: 
#        150
#        9069
#        19203
#        30920
#        40858
#        51816
#        62879
#        76213
#        87431
#        97005
#        112023
#        121997
#        134630
#        148237
#        160610
#
# Disc length: 2315 seconds
#
# Revision: 0
# Processed by: cddbd v1.5.2PL0 Copyright (c) Steve Scherf et al.
# Submitted via: ExactAudioCopy v1.3
#
DISCID=c109090f
DTITLE=Porter Wagoner - Country Club (The Hits Of Porter Wagoner)
DYEAR=1976
DGENRE=Country
TTITLE0=Carolina Moonshine
TTITLE1=Tore Down
TTITLE2=Nothing Between
TTITLE3=What Ain't To Be, Just Might Happen
TTITLE4=Katy Did
TTITLE5=Be A Little Quieter
TTITLE6=A World Without Music
TTITLE7=A World Without Music
TTITLE8=Highway Headin' South
TTITLE9=Charley's Picture
TTITLE10=Wake Up Jakob
TTITLE11=Just For The Lonely One
TTITLE12=The Last One To Touch Me
TTITLE13=Lightening The Lord
TTITLE14=George Leroy Chickashea
EXTD=
EXTT0=
EXTT1=
EXTT2=
EXTT3=
EXTT4=
EXTT5=
EXTT6=
EXTT7=
EXTT8=
EXTT9=
EXTT10=
EXTT11=
EXTT12=
EXTT13=
EXTT14=
PLAYORDER=
